<mxfile host="app.diagrams.net" agent="Mozilla/5.0 (Windows NT 10.0; Win64; x64; rv:133.0) Gecko/20100101 Firefox/133.0" version="25.0.3">
  <diagram name="Seite-1" id="Clw2BGvq6Fnux7F3PrAT">
    <mxGraphModel dx="1430" dy="788" grid="1" gridSize="10" guides="1" tooltips="1" connect="1" arrows="1" fold="1" page="1" pageScale="1" pageWidth="827" pageHeight="1169" math="0" shadow="0">
      <root>
        <mxCell id="0" />
        <mxCell id="1" parent="0" />
        <mxCell id="ivi2gBz16cIk0R0LfdaT-7" value="Client ..." style="ellipse;whiteSpace=wrap;html=1;strokeWidth=2;strokeColor=#006666;" vertex="1" parent="1">
          <mxGeometry x="80" y="270" width="90" height="40" as="geometry" />
        </mxCell>
        <mxCell id="ivi2gBz16cIk0R0LfdaT-10" value="Client 1" style="ellipse;whiteSpace=wrap;html=1;strokeWidth=2;strokeColor=#006666;" vertex="1" parent="1">
          <mxGeometry x="80" y="60" width="90" height="40" as="geometry" />
        </mxCell>
        <mxCell id="ivi2gBz16cIk0R0LfdaT-12" value="" style="endArrow=classic;html=1;rounded=0;strokeColor=#006666;strokeWidth=2;startArrow=classic;startFill=1;" edge="1" parent="1" target="ivi2gBz16cIk0R0LfdaT-10" source="ivi2gBz16cIk0R0LfdaT-28">
          <mxGeometry width="50" height="50" relative="1" as="geometry">
            <mxPoint x="474.69000000000005" y="175.83002323114317" as="sourcePoint" />
            <mxPoint x="170" y="102" as="targetPoint" />
          </mxGeometry>
        </mxCell>
        <mxCell id="ivi2gBz16cIk0R0LfdaT-14" value="Client 2" style="ellipse;whiteSpace=wrap;html=1;strokeWidth=2;strokeColor=#006666;" vertex="1" parent="1">
          <mxGeometry x="80" y="130" width="90" height="40" as="geometry" />
        </mxCell>
        <mxCell id="ivi2gBz16cIk0R0LfdaT-15" value="" style="endArrow=classic;html=1;rounded=0;strokeColor=#006666;strokeWidth=2;startArrow=classic;startFill=1;" edge="1" parent="1" source="ivi2gBz16cIk0R0LfdaT-28" target="ivi2gBz16cIk0R0LfdaT-14">
          <mxGeometry width="50" height="50" relative="1" as="geometry">
            <mxPoint x="475.28407000000004" y="191.60000000000002" as="sourcePoint" />
            <mxPoint x="170.04064623181898" y="163.1077218337473" as="targetPoint" />
          </mxGeometry>
        </mxCell>
        <mxCell id="ivi2gBz16cIk0R0LfdaT-16" value="" style="endArrow=classic;html=1;rounded=0;strokeColor=#006666;strokeWidth=2;startArrow=classic;startFill=1;" edge="1" parent="1" source="ivi2gBz16cIk0R0LfdaT-28" target="ivi2gBz16cIk0R0LfdaT-19">
          <mxGeometry width="50" height="50" relative="1" as="geometry">
            <mxPoint x="475.0662799999999" y="217.90000000000003" as="sourcePoint" />
            <mxPoint x="169.98547346400858" y="221.491858439277" as="targetPoint" />
          </mxGeometry>
        </mxCell>
        <mxCell id="ivi2gBz16cIk0R0LfdaT-17" value="" style="endArrow=classic;html=1;rounded=0;strokeColor=#006666;strokeWidth=2;startArrow=classic;startFill=1;" edge="1" parent="1" source="ivi2gBz16cIk0R0LfdaT-28" target="ivi2gBz16cIk0R0LfdaT-7">
          <mxGeometry width="50" height="50" relative="1" as="geometry">
            <mxPoint x="473.87814000000026" y="236.29999999999995" as="sourcePoint" />
            <mxPoint x="200" y="132" as="targetPoint" />
          </mxGeometry>
        </mxCell>
        <mxCell id="ivi2gBz16cIk0R0LfdaT-19" value="Client 3" style="ellipse;whiteSpace=wrap;html=1;strokeWidth=2;strokeColor=#006666;" vertex="1" parent="1">
          <mxGeometry x="80" y="200" width="90" height="40" as="geometry" />
        </mxCell>
        <mxCell id="ivi2gBz16cIk0R0LfdaT-28" value="Webserver" style="rounded=0;whiteSpace=wrap;html=1;strokeWidth=2;strokeColor=#006666;" vertex="1" parent="1">
          <mxGeometry x="220" y="160" width="90" height="50" as="geometry" />
        </mxCell>
        <mxCell id="ivi2gBz16cIk0R0LfdaT-30" value="Datenbank-&lt;br&gt;server" style="rounded=0;whiteSpace=wrap;html=1;strokeWidth=2;strokeColor=#006666;" vertex="1" parent="1">
          <mxGeometry x="520" y="160" width="91" height="50" as="geometry" />
        </mxCell>
        <mxCell id="ivi2gBz16cIk0R0LfdaT-31" value="" style="endArrow=classic;html=1;rounded=0;strokeColor=#006666;strokeWidth=2;exitX=-0.003;exitY=0.426;exitDx=0;exitDy=0;exitPerimeter=0;" edge="1" parent="1" target="ivi2gBz16cIk0R0LfdaT-29">
          <mxGeometry width="50" height="50" relative="1" as="geometry">
            <mxPoint x="455.28407000000004" y="191.60000000000002" as="sourcePoint" />
            <mxPoint x="150.04064623181898" y="163.1077218337473" as="targetPoint" />
          </mxGeometry>
        </mxCell>
        <mxCell id="ivi2gBz16cIk0R0LfdaT-29" value="Anwendungs-&lt;br&gt;server" style="rounded=0;whiteSpace=wrap;html=1;strokeWidth=2;strokeColor=#006666;" vertex="1" parent="1">
          <mxGeometry x="369" y="160" width="90" height="50" as="geometry" />
        </mxCell>
        <mxCell id="ivi2gBz16cIk0R0LfdaT-32" value="" style="endArrow=classic;html=1;rounded=0;strokeColor=#006666;strokeWidth=5;startArrow=classic;startFill=1;" edge="1" parent="1" source="ivi2gBz16cIk0R0LfdaT-29" target="ivi2gBz16cIk0R0LfdaT-28">
          <mxGeometry width="50" height="50" relative="1" as="geometry">
            <mxPoint x="430" y="270" as="sourcePoint" />
            <mxPoint x="356" y="255" as="targetPoint" />
          </mxGeometry>
        </mxCell>
        <mxCell id="ivi2gBz16cIk0R0LfdaT-33" value="" style="endArrow=classic;html=1;rounded=0;strokeColor=#006666;strokeWidth=5;startArrow=classic;startFill=1;" edge="1" parent="1" source="ivi2gBz16cIk0R0LfdaT-30" target="ivi2gBz16cIk0R0LfdaT-29">
          <mxGeometry width="50" height="50" relative="1" as="geometry">
            <mxPoint x="240" y="194" as="sourcePoint" />
            <mxPoint x="166" y="179" as="targetPoint" />
          </mxGeometry>
        </mxCell>
      </root>
    </mxGraphModel>
  </diagram>
</mxfile>
